<svg width="32" height="32" viewBox="0 0 32 32" fill="none" xmlns="http://www.w3.org/2000/svg">
<path d="M0.5448 31.4553L2.72407 23.5074C1.37805 21.1999 0.672992 18.5559 0.672992 15.8639C0.672992 7.41923 7.57935 0.544922 16.04 0.544922C20.1582 0.560946 24.02 2.14733 26.9204 5.04768C29.8207 7.932 31.4231 11.7778 31.4071 15.8799C31.4071 24.3086 24.5168 31.1829 16.04 31.1829C13.4602 31.1829 10.9444 30.5419 8.70104 29.3241L0.5448 31.4553Z" fill="url(#paint0_linear_14_1478)"/>
<path fill-rule="evenodd" clip-rule="evenodd" d="M0 32L2.25939 23.7797C0.865298 21.3761 0.128192 18.652 0.128192 15.8638C0.128192 7.11467 7.27491 0 16.0401 0C20.3025 0 24.3085 1.65048 27.305 4.64697C30.3175 7.64347 31.9679 11.6335 31.9679 15.8638C31.9679 24.6129 24.8212 31.7276 16.0401 31.7276C13.3801 31.7276 10.7521 31.0546 8.42864 29.8047L0 32ZM8.82924 26.9204L9.32599 27.2088C11.345 28.4106 13.6845 29.0356 16.0561 29.0356C23.347 29.0356 29.2919 23.1227 29.2919 15.8638C29.2919 12.3385 27.9139 9.02153 25.4141 6.53781C22.9144 4.03806 19.5974 2.65999 16.0561 2.65999C8.76515 2.65999 2.83625 8.57286 2.82023 15.8478C2.82023 18.3315 3.52529 20.7672 4.85528 22.8663L5.15974 23.363L3.82974 28.2183L8.82924 26.9204Z" fill="url(#paint1_linear_14_1478)"/>
<path d="M13.3 12.1624C13.3961 12.3707 13.4602 12.595 13.332 12.8674C13.1878 13.1238 13.1237 13.3001 12.9314 13.5244C12.7392 13.7487 12.5148 14.0372 12.3386 14.2134C12.1302 14.4217 11.9219 14.6301 12.1623 15.0307C12.3866 15.4313 13.1878 16.7292 14.3736 17.7708C15.8959 19.1168 17.1778 19.5334 17.5784 19.7417C17.963 19.934 18.2034 19.902 18.4277 19.6456C18.668 19.3732 19.4212 18.4758 19.6936 18.0912C19.966 17.6906 20.2224 17.7547 20.5909 17.8829C20.9595 18.0272 22.9144 18.9726 23.299 19.1809C23.6996 19.3732 23.972 19.4693 24.0681 19.6456C24.1643 19.8058 24.1643 20.591 23.8438 21.5204C23.5073 22.4498 21.8729 23.3471 21.1518 23.4112C20.4147 23.4753 19.7417 23.7317 16.3766 22.4177C12.3386 20.8314 9.77471 16.6972 9.58242 16.4408C9.39013 16.1684 7.96399 14.2775 7.96399 12.3386C7.96399 10.3837 8.98953 9.42225 9.35808 9.02165C9.71061 8.63707 10.1433 8.5249 10.4157 8.5249C10.6721 8.5249 10.9445 8.5249 11.1688 8.54093C11.4572 8.55695 11.7777 8.57297 12.0661 9.22996C12.4187 10.0151 13.1878 11.9701 13.3 12.1624Z" fill="white"/>
<defs>
<linearGradient id="paint0_linear_14_1478" x1="15.9759" y1="32.9936" x2="15.9759" y2="-0.993386" gradientUnits="userSpaceOnUse">
<stop stop-color="#20B038"/>
<stop offset="1" stop-color="#67D670"/>
</linearGradient>
<linearGradient id="paint1_linear_14_1478" x1="15.976" y1="32" x2="15.976" y2="0" gradientUnits="userSpaceOnUse">
<stop stop-color="#F9F9F9"/>
<stop offset="1" stop-color="white"/>
</linearGradient>
</defs>
</svg>
